<?xml version="1.0" encoding="UTF-8" standalone="no"?>
<!-- Generator: Adobe Illustrator 12.0.1, SVG Export Plug-In . SVG Version: 6.00 Build 51448)  -->

<svg
   xmlns:dc="http://purl.org/dc/elements/1.1/"
   xmlns:cc="http://creativecommons.org/ns#"
   xmlns:rdf="http://www.w3.org/1999/02/22-rdf-syntax-ns#"
   xmlns:svg="http://www.w3.org/2000/svg"
   xmlns="http://www.w3.org/2000/svg"
   xmlns:sodipodi="http://sodipodi.sourceforge.net/DTD/sodipodi-0.dtd"
   xmlns:inkscape="http://www.inkscape.org/namespaces/inkscape"
   version="1.1"
   id="Layer_1"
   width="148.7373"
   height="142.18295"
   viewBox="0 0 148.73731 142.18295"
   overflow="visible"
   enable-background="new 0 0 400 400"
   xml:space="preserve"
   inkscape:version="0.48.1 r9760"
   sodipodi:docname="icon.svg"
   style="overflow:visible"><metadata
   id="metadata3977"><rdf:RDF><cc:Work
       rdf:about=""><dc:format>image/svg+xml</dc:format><dc:type
         rdf:resource="http://purl.org/dc/dcmitype/StillImage" /></cc:Work></rdf:RDF></metadata><defs
   id="defs3975" /><sodipodi:namedview
   pagecolor="#ffffff"
   bordercolor="#666666"
   borderopacity="1"
   objecttolerance="10"
   gridtolerance="10"
   guidetolerance="10"
   inkscape:pageopacity="0"
   inkscape:pageshadow="2"
   inkscape:window-width="1280"
   inkscape:window-height="1000"
   id="namedview3973"
   showgrid="false"
   fit-margin-top="0"
   fit-margin-left="0"
   fit-margin-right="0"
   fit-margin-bottom="0"
   inkscape:zoom="1.465"
   inkscape:cx="222.75108"
   inkscape:cy="-32.239343"
   inkscape:window-x="0"
   inkscape:window-y="24"
   inkscape:window-maximized="1"
   inkscape:current-layer="Layer_1" />

<path
   d="m 124.08689,49.749887 c 12.77502,7.443862 22.09794,20.497443 24.20768,36.28552 3.6274,27.138283 -15.43299,52.077673 -42.57123,55.705063 -11.344267,1.51617 -22.307429,-0.93379 -31.488482,-6.27943"
   id="path3945"
   inkscape:connector-curvature="0"
   style="fill:#0000ff" />
<path
   d="m 74.234135,135.45956 c -5.41696,3.1059 -11.515501,5.23272 -18.087229,6.11154 C 29.009007,145.19846 4.0692396,126.13808 0.44260456,99.001319 -2.2774003,78.649092 7.7631578,59.530403 24.402525,49.714211 24.576001,49.611708 24.750541,49.510308 24.9255,49.41001"
   id="path3947"
   inkscape:connector-curvature="0"
   style="fill:#00ff00" />
<path
   d="M 24.925881,49.412635 C 24.977874,24.996605 43.065484,3.7670729 67.939489,0.4427367 95.076628,-3.184659 120.01601,15.875685 123.64341,43.013241 c 0.3031,2.263514 0.44793,4.512536 0.44348,6.73444"
   id="path3949"
   inkscape:connector-curvature="0"
   style="fill:#ff0000" />
<path
   d="m 73.980064,49.883237 c 5.54548,-3.272305 11.826396,-5.510944 18.610928,-6.417955 11.348718,-1.517313 22.313368,0.93451 31.495898,6.284605 v -0.0023 c -0.0386,17.964644 -9.84144,34.204002 -24.924512,42.856145"
   id="path3951"
   inkscape:connector-curvature="0"
   style="fill:#ff00ff" />
<path
   d="M 49.576661,92.432937 C 36.803509,84.990179 27.478723,71.935114 25.36788,56.147418 25.065924,53.883561 24.922153,51.634539 24.925881,49.412635 l -3.81e-4,-0.0027 c 5.416961,-3.107006 11.515501,-5.235307 18.08723,-6.113754 11.347958,-1.516552 22.310779,0.933407 31.493315,6.281639"
   id="path3953"
   inkscape:connector-curvature="0"
   style="fill:#ffff00" />
<path
   d="m 99.159411,92.602305 c -0.0364,17.966125 -9.83848,34.205105 -24.925276,42.857255 l 7.61e-4,0.002 C 61.458016,128.0188 52.130264,114.96225 50.019421,99.171205 c -0.302717,-2.264998 -0.446449,-4.51364 -0.44276,-6.736266"
   id="path3955"
   inkscape:connector-curvature="0"
   style="fill:#00ffff" />
<path
   d="M 99.162378,92.603788 C 93.743211,95.710453 87.645774,97.839476 81.073665,98.718303 69.724946,100.23375 58.759197,97.784516 49.576661,92.432937 v 0.0015 c 0.03826,-17.75515 9.614495,-33.826623 24.403403,-42.551184 l 0.525943,-0.305304 c 12.775738,7.443481 22.102387,20.498546 24.212888,36.288106 0.301614,2.264997 0.44645,4.51364 0.440516,6.736266 l 0.003,0.0015 z"
   id="path3957"
   inkscape:connector-curvature="0"
   style="fill:#ffffff" />

</svg>